<?xml version="1.0" encoding="utf-8"?>
<!-- Generator: Adobe Illustrator 15.1.0, SVG Export Plug-In . SVG Version: 6.00 Build 0)  -->
<!DOCTYPE svg PUBLIC "-//W3C//DTD SVG 1.1//EN" "http://www.w3.org/Graphics/SVG/1.1/DTD/svg11.dtd">
<svg version="1.1" id="Layer_1" xmlns="http://www.w3.org/2000/svg" xmlns:xlink="http://www.w3.org/1999/xlink" x="0px" y="0px"
	 width="56.568px" height="56.569px" viewBox="0 0 56.568 56.569" enable-background="new 0 0 56.568 56.569" xml:space="preserve">
<path d="M142.128,28.284l-14.142-14.142l0,0L104.18-9.664l-4.478-4.479l0,0L78.135-35.709L56.569-57.276l0,0L28.285-85.56
	L14.142-71.417L0-57.275l-14.142,14.142l-14.143,14.143v0L-85.56,28.284l28.284,28.285l0,0L0,113.844l0,0l28.285,28.284
	l14.143-14.143l14.142-14.142L85.56,84.853L99.703,70.71l14.142-14.142l0,0L142.128,28.284z M28.285,70.003l-7.071,7.071
	l-6.364-6.364l13.436-13.435l0,0L41.719,70.71l-6.363,6.364L28.285,70.003z M34.649,77.782l-6.364,6.364l-6.364-6.364l6.364-6.364
	L34.649,77.782z M-13.435,28.284l-7.071-7.071l6.364-6.364l13.435,13.435l-13.435,13.435l-6.364-6.364L-13.435,28.284z
	 M-21.213,34.648l-6.363-6.363l6.364-6.364l6.364,6.364L-21.213,34.648z M28.992,28.284l6.364-6.364l6.363,6.364l-6.363,6.364
	L28.992,28.284z M36.063,35.355l7.07-7.071l-7.07-7.071l6.364-6.364l13.435,13.435L42.427,41.719L36.063,35.355z M27.577,28.285
	l-6.363,6.363l-6.364-6.364l6.364-6.364L27.577,28.285z M28.285,27.577l-6.364-6.364l6.364-6.364l6.363,6.364L28.285,27.577z
	 M14.142,14.85l6.364,6.364l-7.071,7.071l7.071,7.071l-6.364,6.364L0.708,28.285L14.142,14.85z M0,55.862l-6.364-6.364L0,43.133
	l6.364,6.364L0,55.862z M28.284,28.992l6.364,6.364l-6.363,6.363l-6.364-6.364L28.284,28.992z M50.205,49.497l6.364-6.363
	l6.363,6.364l-6.363,6.363L50.205,49.497z M56.569,0.708l6.364,6.364l-6.364,6.364l-6.364-6.364L56.569,0.708z M57.276,0L57.276,0
	l6.363-6.364L70.003,0L63.64,6.364L57.276,0z M41.719,14.142l-6.364,6.364l-7.07-7.071l-7.071,7.071l-6.364-6.364L28.284,0.708
	L41.719,14.142z M6.364,7.071L0,13.435l-6.364-6.364L0,0.708L6.364,7.071z M0,14.849l7.071-7.071l6.364,6.364L0,27.577
	l-13.435-13.435l6.364-6.364L0,14.849z M0,28.992l13.435,13.435l0,0l-6.364,6.364L0,41.719l-7.071,7.071l-6.364-6.364L0,28.992z
	 M0.708,56.569l6.364-6.364l6.364,6.364l-6.364,6.363L0.708,56.569z M21.213,36.062l7.071,7.071l7.07-7.07l6.364,6.363
	L28.284,55.862L14.85,42.426L21.213,36.062z M63.639,48.791l-7.07-7.071l-7.071,7.07l-6.363-6.363l13.435-13.435l13.435,13.435
	L63.639,48.791z M56.57,27.577L43.134,14.142l6.363-6.363l7.071,7.071l7.071-7.071l6.363,6.364L56.57,27.577z M64.347,7.071
	L71.417,0l-7.071-7.071l6.364-6.364L84.146,0L70.71,13.436L64.347,7.071z M56.568-0.707l-6.363-6.364l6.364-6.364l6.363,6.364
	L56.568-0.707z M55.861,0l-6.363,6.364L43.133,0l6.364-6.364L55.861,0z M41.719,0l7.071,7.071l-6.364,6.364L28.992,0l13.435-13.435
	l6.364,6.364L41.719,0z M-0.707,56.569l-6.364,6.363l-6.364-6.363l6.364-6.364L-0.707,56.569z M0,57.276L0,57.276l6.364,6.364
	L0,70.003l-6.364-6.363L0,57.276z M7.778,63.639l7.071-7.07l-7.071-7.071l6.364-6.364l13.435,13.436L14.142,70.003L7.778,63.639z
	 M28.992,56.569l13.435-13.435l6.364,6.363l-7.071,7.071l7.071,7.071l-6.364,6.363L28.992,56.569z M43.133,56.569l6.364-6.364
	l6.364,6.364l-6.364,6.364L43.133,56.569z M63.64,50.205l6.363,6.364l-6.363,6.363l-6.363-6.363L63.64,50.205z M77.782,34.648
	l-6.364-6.363l6.364-6.364l6.364,6.364L77.782,34.648z M70.003,28.285l7.071,7.07l-6.363,6.363L57.277,28.284L70.71,14.85
	l6.364,6.364L70.003,28.285z M70.003-14.142l-6.364,6.364l-7.07-7.071l-7.071,7.071l-6.364-6.364l13.436-13.435L70.003-14.142z
	 M-7.071,6.364L-13.435,0l6.364-6.364L-0.708,0L-7.071,6.364z M-14.142,43.133l6.364,6.364l-7.071,7.071l7.071,7.07l-6.364,6.364
	l-13.435-13.435L-14.142,43.133z M-13.434,70.709l6.363-6.362L0,71.417l7.071-7.07l6.364,6.363L0.001,84.145L-13.434,70.709z
	 M64.347,63.639l7.07-7.07l-7.07-7.071l6.364-6.364l13.435,13.436L70.711,70.003L64.347,63.639z M84.853,28.992l6.363,6.364
	l-6.363,6.363l-6.364-6.363L84.853,28.992z M85.56,28.285L85.56,28.285l6.363-6.364l6.364,6.364l-6.364,6.364L85.56,28.285z
	 M84.853,27.577l-6.364-6.364l6.364-6.364l6.363,6.364L84.853,27.577z M84.853,13.436l-7.071,7.071l-6.364-6.364L84.853,0.708
	l13.435,13.435l-6.364,6.364L84.853,13.436z M42.426-14.849l-6.601-6.6l7.071-7.071l-6.835-6.835l6.364-6.364l13.435,13.435
	L42.426-14.849z M41.483-28.52l-6.364,6.364l-6.127-6.128l6.364-6.364L41.483-28.52z M28.284-28.991l-6.6-6.6l6.364-6.364l6.6,6.6
	L28.284-28.991z M27.577-28.284l-6.364,6.364l-6.6-6.6l6.364-6.364L27.577-28.284z M28.284-27.577l6.127,6.128l-6.364,6.364
	l-6.128-6.128L28.284-27.577z M28.048-13.671l7.071-7.071l6.601,6.6L28.284-0.707L14.849-14.142l6.364-6.364L28.048-13.671z
	 M-14.849,0l7.071,7.071l-6.364,6.364L-27.577,0l13.435-13.435l6.364,6.364L-14.849,0z M-14.849,14.142l-6.364,6.364l-7.071-7.071
	l-7.071,7.071l-6.364-6.364l13.435-13.435L-14.849,14.142z M-28.284,14.849l6.364,6.364l-6.364,6.364l-6.364-6.364L-28.284,14.849z
	 M-28.991,28.285l-6.364,6.364l-6.364-6.365l6.364-6.364L-28.991,28.285z M-28.284,28.992l6.364,6.363l-6.364,6.364l-6.364-6.363
	L-28.284,28.992z M-28.284,43.133l7.071-7.071l6.364,6.364l-13.435,13.436l-13.435-13.436l6.364-6.363L-28.284,43.133z
	 M27.578,84.853l-6.364,6.364l-6.364-6.364l6.364-6.364L27.578,84.853z M28.285,85.56l6.363,6.364l-6.363,6.363l-6.364-6.363
	L28.285,85.56z M28.992,84.853l6.364-6.364l6.363,6.364l-6.364,6.364L28.992,84.853z M56.569,57.276l6.363,6.364l-6.363,6.363
	l-6.364-6.363L56.569,57.276z M84.853,55.861L71.418,42.426l6.363-6.363l7.071,7.07l7.07-7.07l6.364,6.363L84.853,55.861z
	 M92.63,35.356l7.071-7.071l-7.071-7.071l6.364-6.364l13.436,13.436L98.995,41.719L92.63,35.356z M84.853-0.707L71.417-14.142
	l13.436-13.435l13.436,13.435L84.853-0.707z M84.146-28.284L70.71-14.849L57.276-28.285L70.71-41.719L84.146-28.284z M41.719-42.426
	l-6.364,6.364l-7.307-7.307l-7.071,7.071l-6.128-6.128l13.435-13.435L41.719-42.426z M20.27-35.591l-7.071,7.071l7.307,7.307
	l-6.364,6.364L0.707-28.284l13.435-13.435L20.27-35.591z M27.577,0L14.143,13.435L7.779,7.071L14.849,0L7.778-7.071l6.364-6.364
	L27.577,0z M13.435,0L7.072,6.364L0.708,0l6.363-6.363L13.435,0z M0-0.708l-6.364-6.364L0-13.435l6.364,6.364L0-0.708z
	 M-42.426,14.849l6.364,6.364l-7.071,7.071l7.071,7.072l-6.364,6.363l-13.435-13.435L-42.426,14.849z M-28.285,57.276l13.436,13.435
	l-13.434,13.435l-13.436-13.436L-28.285,57.276z M-27.576,84.852l13.434-13.435l13.435,13.436l-13.434,13.435L-27.576,84.852z
	 M0.708,84.852l13.434-13.435l6.364,6.364l-7.071,7.071l7.071,7.071l-6.363,6.363L0.708,84.852z M21.213,92.631l7.071,7.07
	l7.07-7.07l6.364,6.363l-13.435,13.435L14.85,98.995L21.213,92.631z M36.062,91.924l7.071-7.071l-7.07-7.071l6.364-6.363
	l13.434,13.434L42.426,98.288L36.062,91.924z M43.134,70.711l6.363-6.364l7.071,7.07l7.07-7.07l6.364,6.363L56.568,84.145
	L43.134,70.711z M98.996,43.133l13.434,13.436L98.996,70.002L85.561,56.568L98.996,43.133z M85.56,0l13.436-13.436L112.43,0
	L98.995,13.435L85.56,0z M70.003-42.427L56.569-28.992L43.133-42.427l13.436-13.435l6.718,6.718L70.003-42.427z M0-27.577
	l13.435,13.435L7.071-7.778L0-14.849l-7.071,7.07l-6.364-6.364L0-27.577z M-28.284-0.707l-13.435-13.435l13.435-13.435
	l13.436,13.435L-28.284-0.707z M-28.991,0l-13.435,13.435L-55.861,0l13.435-13.435L-28.991,0z M-28.991,56.569l-13.435,13.434
	L-55.86,56.568l13.434-13.435L-28.991,56.569z M0,85.56l13.435,13.435L0,112.43l-13.435-13.436L0,85.56z M71.418,70.71
	l13.436-13.436l13.435,13.435L84.853,84.145L71.418,70.71z M113.136,55.862L99.703,42.426l13.435-13.435l13.435,13.435
	L113.136,55.862z M113.137,27.578L99.702,14.142l13.436-13.435l13.436,13.435L113.137,27.578z M55.862-56.569L42.426-43.134
	L28.992-56.569l13.435-13.435L55.862-56.569z M-56.568,0.707l13.435,13.435l-13.435,13.435l-13.435-13.435L-56.568,0.707z
	 M-56.568,28.991l13.435,13.435l-13.434,13.435l-13.436-13.436L-56.568,28.991z M0.708,113.137l13.435-13.436l13.435,13.436
	l-13.435,13.435L0.708,113.137z M70.71,71.418l13.436,13.434L70.71,98.288L57.276,84.853L70.71,71.418z M140.714,28.284
	l-13.436,13.435l-13.435-13.435l13.436-13.436L140.714,28.284z M28.285-84.146l13.435,13.435L28.284-57.275L14.849-70.71
	L28.285-84.146z M14.142-70.003l13.435,13.435L14.142-43.133L0.707-56.568L14.142-70.003z M0-55.861l13.435,13.435L0-28.991
	l-13.435-13.435L0-55.861z M-14.142-41.719l13.435,13.435L-14.142-14.85l-13.435-13.435L-14.142-41.719z M-70.71,14.849
	l13.435,13.435l-13.436,13.435l-13.435-13.435L-70.71,14.849z M28.285,140.714l-13.436-13.436l13.435-13.435h0l0-0.001
	l13.435,13.436L28.285,140.714z M42.427,126.572l-13.435-13.436l13.434-13.434l13.436,13.435L42.427,126.572z M43.133,98.996
	L56.569,85.56l13.435,13.435L56.569,112.43L43.133,98.996z"/>
</svg>
