<?xml version="1.0" encoding="utf-8"?>
<!-- Generator: Adobe Illustrator 15.1.0, SVG Export Plug-In . SVG Version: 6.00 Build 0)  -->
<!DOCTYPE svg PUBLIC "-//W3C//DTD SVG 1.1//EN" "http://www.w3.org/Graphics/SVG/1.1/DTD/svg11.dtd">
<svg version="1.1" id="Layer_1" xmlns="http://www.w3.org/2000/svg" xmlns:xlink="http://www.w3.org/1999/xlink" x="0px" y="0px"
	 width="56.568px" height="56.569px" viewBox="0 0 56.568 56.569" enable-background="new 0 0 56.568 56.569" xml:space="preserve">
<g>
	<polygon points="35.355,36.063 28.285,43.133 21.213,36.062 14.85,42.426 28.284,55.862 41.719,42.426 	"/>
	<rect x="30.856" y="23.784" transform="matrix(0.7071 0.7071 -0.7071 0.7071 30.3571 -16.7162)" width="8.999" height="9"/>
	<polygon points="50.205,7.072 56.569,13.436 58.285,11.72 58.285,2.423 56.569,0.708 	"/>
	<rect x="23.784" y="30.856" transform="matrix(-0.7071 -0.7071 0.7071 -0.7071 23.284 80.3555)" width="9" height="8.999"/>
	<polygon points="13.134,58.284 25.862,58.284 27.577,56.569 14.143,43.133 7.778,49.498 14.849,56.569 	"/>
	<polygon points="55.862,28.284 42.427,14.849 36.063,21.213 43.133,28.284 36.063,35.355 42.427,41.719 	"/>
	<rect x="16.713" y="23.785" transform="matrix(-0.7071 -0.7071 0.7071 -0.7071 16.2139 63.2845)" width="9" height="8.999"/>
	<rect x="23.785" y="16.713" transform="matrix(-0.7071 -0.7071 0.7071 -0.7071 33.2848 56.2128)" width="9" height="8.999"/>
	<polygon points="28.285,57.276 27.277,58.284 29.292,58.284 	"/>
	<polygon points="-1.008,-1.716 0,-0.708 1.009,-1.716 	"/>
	<polygon points="-1.715,11.72 0,13.435 6.364,7.071 0,0.708 -1.715,2.423 	"/>
	<polygon points="49.498,50.205 43.133,56.569 44.848,58.284 54.147,58.284 55.862,56.569 	"/>
	<polygon points="58.285,44.849 56.569,43.133 50.205,49.497 56.569,55.861 58.285,54.145 	"/>
	<polygon points="1.008,58.284 0,57.276 -1.008,58.284 	"/>
	<polygon points="13.435,42.426 0,28.992 -1.715,30.708 -1.715,43.435 0,41.719 7.071,48.791 	"/>
	<polygon points="43.134,42.426 49.498,48.79 56.569,41.719 58.285,43.435 58.285,30.708 56.569,28.992 	"/>
	<polygon points="57.577,58.284 56.569,57.276 55.561,58.284 	"/>
	<polygon points="0,43.133 -1.715,44.849 -1.715,54.146 0,55.862 6.364,49.498 	"/>
	<polygon points="57.277,56.569 58.285,57.577 58.285,55.561 	"/>
	<polygon points="13.435,56.569 7.071,50.205 0.708,56.569 2.422,58.284 11.72,58.284 	"/>
	<polygon points="41.719,56.569 48.791,49.498 42.426,43.134 28.992,56.569 30.707,58.284 43.434,58.284 	"/>
	<polygon points="-1.715,55.561 -1.715,57.577 -0.707,56.569 	"/>
	<polygon points="55.559,-1.716 56.568,-0.707 57.578,-1.716 	"/>
	<polygon points="57.277,28.284 58.285,29.292 58.285,27.276 	"/>
	<polygon points="7.072,6.364 13.435,0 11.719,-1.716 2.423,-1.716 0.708,0 	"/>
	<polygon points="-0.708,0 -1.715,-1.007 -1.715,1.008 	"/>
	<polygon points="14.849,0 7.779,7.071 14.143,13.435 27.577,0 25.861,-1.716 13.133,-1.716 	"/>
	<polygon points="-0.707,28.284 -1.715,27.276 -1.715,29.292 	"/>
	<polygon points="0,14.849 -1.715,13.134 -1.715,25.862 0,27.577 13.435,14.142 7.071,7.778 	"/>
	<polygon points="58.285,13.134 56.569,14.85 49.498,7.779 43.134,14.142 56.57,27.577 58.285,25.862 	"/>
	<polygon points="49.498,6.364 55.861,0 54.145,-1.716 44.85,-1.716 43.133,0 	"/>
	<polygon points="57.276,0 58.285,1.009 58.285,-1.009 57.276,0 	"/>
	<polygon points="28.992,0 42.426,13.435 48.791,7.071 41.719,0 43.436,-1.716 30.708,-1.716 	"/>
	<polygon points="29.293,-1.716 27.275,-1.716 28.284,-0.707 	"/>
	<polygon points="0.708,28.285 14.142,41.719 20.506,35.355 13.435,28.284 20.506,21.213 14.142,14.85 	"/>
	<polygon points="21.214,20.506 28.285,13.435 35.355,20.506 41.719,14.142 28.284,0.708 14.85,14.142 	"/>
</g>
</svg>
