<?xml version="1.0" encoding="utf-8"?>
<!-- Generator: Adobe Illustrator 15.1.0, SVG Export Plug-In . SVG Version: 6.00 Build 0)  -->
<!DOCTYPE svg PUBLIC "-//W3C//DTD SVG 1.1//EN" "http://www.w3.org/Graphics/SVG/1.1/DTD/svg11.dtd">
<svg version="1.1" id="Layer_1" xmlns="http://www.w3.org/2000/svg" xmlns:xlink="http://www.w3.org/1999/xlink" x="0px" y="0px"
	 width="1024px" height="1024px" viewBox="0 0 1024 1024" enable-background="new 0 0 1024 1024" xml:space="preserve">
<path fill="#FFFFFF" d="M1009.956,915.76L572.882,44.648C556.14,14.882,534.07,0,512,0s-44.14,14.882-60.884,44.648L14.042,915.76
	c-33.486,59.532-5,108.24,63.304,108.24h869.308C1014.956,1024,1043.446,975.292,1009.956,915.76L1009.956,915.76z M512,896
	c-35.346,0-64-28.654-64-64c0-35.348,28.654-64,64-64c35.348,0,64,28.652,64,64C576,867.346,547.348,896,512,896z M556,704h-88
	l-20-256c0-35.346,28.654-64,64-64s64,28.654,64,64L556,704z"/>
</svg>
